<svg xmlns="http://www.w3.org/2000/svg" xmlns:osb="http://www.openswatchbook.org/uri/2009/osb" xmlns:svg="http://www.w3.org/2000/svg" id="svg2" width="17.067" height="17.067" version="1.1" viewBox="0 0 16 16"><defs id="defs4"><linearGradient id="linearGradient5606" osb:paint="solid"><stop style="stop-color:#000;stop-opacity:1" id="stop5608" offset="0"/></linearGradient></defs><metadata id="metadata7"/><g id="layer1" transform="translate(0,-1036.3622)"><path style="fill:#bebebe;fill-opacity:1;fill-rule:nonzero;stroke:none" id="rect2994" d="m 8,1038.3622 c -0.6073607,2e-4 -1.0996094,0.3482 -1.0996094,0.9004 -1.112e-4,0.022 5.402e-4,0.043 0.00195,0.064 -0.4164526,0.088 -0.9805804,0.2324 -1.2558562,0.4844 -0.4088908,0.3744 -0.7381615,0.4235 -1.2363282,1.666 -0.3115063,0.7771 -0.6864888,4.4845 -0.9296874,5.6368 -0.20447,0.969 -0.431221,1.1967 -0.5019532,1.248 l -0.4785156,0 c -0.277,0 -0.5,0.223 -0.5,0.5 0,0.277 0.223,0.5 0.5,0.5 l 11,0 c 0.277,0 0.5,-0.223 0.5,-0.5 0,-0.277 -0.223,-0.5 -0.5,-0.5 l -0.478516,0 c -0.07073,-0.051 -0.297477,-0.279 -0.501953,-1.248 -0.243193,-1.1523 -0.618176,-4.8597 -0.929687,-5.6368 -0.498162,-1.2425 -0.827437,-1.2916 -1.236328,-1.666 -0.275818,-0.2525 -0.8415863,-0.3963 -1.2578129,-0.4844 0.00206,-0.021 0.00337,-0.043 0.00391,-0.064 -3.7e-6,-0.5522 -0.4922524,-0.9002 -1.0996131,-0.9004 z m -1.5,12 c 0,0.5523 0.6715729,1 1.5,1 0.8284271,0 1.5,-0.4477 1.5,-1 z"/></g></svg>