<svg xmlns="http://www.w3.org/2000/svg" xmlns:svg="http://www.w3.org/2000/svg" id="svg5082" width="16" height="16" version="1.1" viewBox="0 0 16 16"><title id="title5087">Symbolic Icons</title><metadata id="metadata5087"/><g id="layer1" transform="translate(-15.999997,148)"><path id="path7722-2" d="m 23.99977,-146.99664 a 7,7 0 0 0 -7,7 7,7 0 0 0 7,7 7,7 0 0 0 7,-7 7,7 0 0 0 -7,-7 z m 0,2 a 5,5 0 0 1 5,5 5,5 0 0 1 -5,5 5,5 0 0 1 -5,-5 5,5 0 0 1 5,-5 z" style="opacity:1;fill:#cfd8dc;fill-opacity:1;stroke:none;stroke-width:4;stroke-linecap:square;stroke-linejoin:miter;stroke-miterlimit:4;stroke-dasharray:none;stroke-opacity:1"/><path id="path7715-3" d="m 26.40624,-142.8125 c -0.0964,0.0256 -0.18476,0.0808 -0.25,0.15625 l -2.15625,2.15625 -1.65625,-1.65625 c -0.15718,-0.25698 -0.56824,-0.30673 -0.78125,-0.0937 -0.21301,0.21301 -0.16326,0.62407 0.0937,0.78125 l 2,2 c 0.1835,0.1737 0.504,0.1737 0.6875,0 l 2.5,-2.5 c 0.29287,-0.29845 -0.0248,-0.91114 -0.4375,-0.84375 z" style="color:#bebebe;display:inline;overflow:visible;visibility:visible;opacity:1;fill:#cfd8dc;fill-opacity:1;fill-rule:nonzero;stroke:none;stroke-width:2;marker:none;enable-background:accumulate"/></g></svg>