<svg xmlns="http://www.w3.org/2000/svg" xmlns:svg="http://www.w3.org/2000/svg" id="svg5082" width="16" height="16.003" version="1.1" viewBox="0 0 16 16.003"><title id="title5087">Symbolic Icons</title><metadata id="metadata5087"/><g id="layer1" transform="translate(-15.999997,168.00336)"><path id="rect11474" d="m 23.99991,-166.99999 c 0.55228,0 1,0.44772 1,1 -2.9e-4,0.0333 -0.002,0.0665 -0.006,0.0996 2.29032,0.45883 4.00603,2.47123 4.00586,4.90039 l -1.4e-4,1.99999 0,2.5 2,2 0,0.5 -2,0 -10,0 -2,0 0,-0.5 2,-2 1.4e-4,-4.49999 c 8e-5,-2.42916 1.71568,-4.44157 4.00586,-4.90039 -0.004,-0.0331 -0.006,-0.0663 -0.006,-0.0996 0,-0.55228 0.44772,-1 1,-1 z M 25.72829,-153 c -0.35663,0.61771 -1.01525,0.99874 -1.72852,1 -0.71397,-5.6e-4 -1.37349,-0.38169 -1.73047,-1 z" style="opacity:1;fill:#cfd8dc;fill-opacity:1;stroke:none;stroke-width:3;stroke-linecap:round;stroke-miterlimit:4;stroke-dasharray:none;stroke-opacity:1"/></g></svg>