<svg xmlns="http://www.w3.org/2000/svg" xmlns:svg="http://www.w3.org/2000/svg" id="svg5082" width="16" height="16" version="1.1" viewBox="0 0 16 16"><title id="title5087">Symbolic Icons</title><metadata id="metadata5087"/><g id="layer1" transform="translate(-35.999996,68)"><path id="rect7919" d="m 38,-65 c -0.554,0 -1,0.446 -1,1 l 0,0.16016 6.230469,3.89257 c 0.75116,0.37007 1.521249,0.0115 1.537109,0.004 L 51,-63.83984 51,-64 c 0,-0.554 -0.446,-1 -1,-1 z M 37,-61.66016 37,-56 c 0,0.554 0.446,1 1,1 l 12,0 c 0.554,0 1,-0.446 1,-1 l 0,-5.66016 -5.755859,3.59766 -0.02148,0.01 c 0,0 -1.206798,0.61925 -2.445312,0 l -0.02148,-0.01 z" style="opacity:1;fill:#cfd8dc;fill-opacity:1;stroke:none;stroke-width:1;stroke-linecap:square;stroke-linejoin:round;stroke-miterlimit:4;stroke-dasharray:none;stroke-opacity:1"/></g></svg>